<svg xmlns="http://www.w3.org/2000/svg" id="Layer_1" viewBox="0 0 56 44.3"><path d="M14.4,18.4c-.9,0-1.6.7-1.6,1.6s.7,1.6,1.6,1.6,1.6-.7,1.6-1.6-.7-1.6-1.6-1.6ZM23.3,10.8h-5.5v-2.6h4.9v-2.6h-4.9v-2.6h5.4V.3h-8.3v13.2h8.4v-2.7ZM17.1,18.7c.9,0,1.6-.7,1.6-1.6s-.7-1.6-1.6-1.6-1.6.7-1.6,1.6.7,1.6,1.6,1.6ZM5.6,13.7c1.9,0,3.6-1,4.6-2.5v2.2h2.6v-7.3h-7v2.5h2.9c-.3,1.4-1.5,2.4-2.9,2.4s-2.9-1.3-2.9-3.2v-1.9c0-1.9,1.4-3.2,3.3-3.2s2.9.8,3.3,2l2.7-1c-.8-2.3-3.2-3.8-6-3.8S0,2.4,0,5.9v1.9c0,3.4,2.5,5.9,5.6,5.9ZM31,4h-2.9v4.2h2.9V4ZM34.5.3h-10v2.7h10V.3ZM5,28.7h3v-5l5-8.2h-3.3l-3.1,5.4-3.1-5.4H0l5,8.2v5ZM31,9.2h-2.9v4.2h2.9s0-4.2,0-4.2ZM53.5,28.7l-3.6-5c1.7-.5,3-2.1,3-3.9s-2-4.2-4.5-4.2h-1.7v2.7h1.6c.9,0,1.5.7,1.5,1.6s-.7,1.6-1.5,1.6h-1.6v2.5l3.2,4.8h3.6ZM38.8,30.8h-4.3v13.2h4.3c4.1,0,7-2.8,7-6.6s-2.9-6.6-7-6.6ZM39.1,41.3h-1.6v-7.9h1.6c2.2,0,3.7,1.7,3.7,3.9s-1.5,3.9-3.7,3.9ZM50.5,38.7h4.9v-2.6h-4.9v-2.6h5.4v-2.6h-8.3v13.2h8.4v-2.7h-5.5v-2.6ZM45.8,24.3l-1.5-2.2,1.5-2.2-1.5-2.2,1.5-2.2h-3s-1.5,2.2-1.5,2.2l1.5,2.2-1.5,2.2,1.5,2.2-1.5,2.2,1.6,2.3h3.1l-1.7-2.3,1.5-2.2ZM39.1,23.6v-8h-2.9v8.1c0,1.5-1.1,2.6-2.6,2.6s-2.6-1.1-2.6-2.6v-8.1h-2.9v8c0,3.1,2.3,5.4,5.5,5.4s5.5-2.3,5.5-5.4ZM22.9,38.9c0,1.5-1.1,2.6-2.6,2.6s-2.6-1.1-2.6-2.6v-8.1h-2.9v8c0,3.1,2.3,5.4,5.5,5.4s5.5-2.3,5.5-5.4v-8h-2.9v8.1ZM5.9,39.2h2.9c-.3,1.4-1.5,2.4-2.9,2.4s-2.9-1.3-2.9-3.2v-1.9c0-1.9,1.4-3.2,3.3-3.2s2.9.8,3.3,2l2.7-1c-.8-2.3-3.2-3.8-6-3.8S0,33,0,36.5v1.9c0,3.4,2.5,5.9,5.6,5.9s3.6-1,4.6-2.5v2.2h2.6v-7.3h-7s0,2.5,0,2.5Z"></path><path d="M19.4,15.3v2.8c2.2,0,3.9,1.8,3.9,4.1s-1.7,4.1-3.9,4.1-3.9-1.8-3.9-4.1h-3c0,3.8,3.1,6.9,6.9,6.9s6.9-3,6.9-6.9-3.1-6.9-6.9-6.9ZM31.5,37c.4-.4,1.2-1.1,1.2-2.3s-.7-1.9-1.2-2.3c0,0,0,0,0,0-.2-.2-.3-.6-.3-.7v-.9h-3v1.2h0s0,0,0,0c0,1.2.7,1.9,1.2,2.3.3.3.3.3.3.4s0,.1-.3.4c-.4.4-1.1,1-1.2,2.1h0s0,0,0,0,0,0,0,0,0,0,0,0c0,0,0,0,0,0h0c0,1.1.7,1.8,1.2,2.1.3.3.3.3.3.4s0,.1-.3.4c-.4.4-1.2,1.1-1.2,2.3s0,0,0,0h0v1.2h3v-.9c0-.2,0-.5.3-.7,0,0,0,0,0,0,.4-.4,1.2-1.1,1.2-2.3s-.7-1.9-1.2-2.3c-.3-.3-.3-.3-.3-.4,0,0,0-.1.3-.4Z"></path></svg>